<svg xmlns="http://www.w3.org/2000/svg" viewBox="0 0 18 18" fill="currentColor">
    <path
        d="M6.75 4.31299C7.06069 4.31299 7.31249 4.5648 7.3125 4.87549C7.3125 5.18618 7.06069 5.43799 6.75 5.43799H5.625C3.66327 5.43807 2.06251 7.03874 2.0625 9.00049C2.0625 10.3645 2.84301 11.558 3.98047 12.1558L3.13477 12.9663C1.81639 12.1338 0.9375 10.6642 0.9375 9.00049C0.937505 6.41735 3.04188 4.31307 5.625 4.31299H6.75Z"
        fill="currentColor" />
    <path d="M6.00781 9.00098H9.00031" stroke="currentColor" stroke-width="1.12513" stroke-linecap="round"
        stroke-linejoin="round" />
    <path
        d="M11.666 8.43841L11.1035 8.43841L11.1035 9.56354L11.666 9.56354L11.666 8.43841ZM12.2475 9.56354C12.5582 9.56354 12.81 9.31167 12.81 9.00098C12.81 8.69028 12.5582 8.43841 12.2475 8.43841L12.2475 9.56354ZM11.666 9.00098L11.666 9.56354L12.2475 9.56354L12.2475 9.00098L12.2475 8.43841L11.666 8.43841L11.666 9.00098Z"
        fill="currentColor" />
    <path d="M16.5016 1.5L1.5 16.5016" stroke="currentColor" stroke-width="1.12513" stroke-linecap="round"
        stroke-linejoin="round" />
    <path
        d="M14.8633 5.03198C16.1838 5.86412 17.0645 7.33549 17.0645 9.00073C17.0643 11.5843 14.9516 13.6879 12.377 13.6882H11.2441C10.9335 13.6882 10.6818 13.4363 10.6816 13.1257C10.6816 12.815 10.9334 12.5632 11.2441 12.5632H12.377C14.3316 12.5629 15.9393 10.9615 15.9395 9.00073C15.9395 7.63514 15.1572 6.43958 14.0176 5.84253L14.8633 5.03198Z"
        fill="currentColor" />
</svg>