<svg width="40" height="40" viewBox="0 0 40 40" fill="none" xmlns="http://www.w3.org/2000/svg">
<rect width="40" height="40" rx="3" fill="#295294"/>
<g filter="url(#filter0_d_181_8399)">
<path d="M21.812 8.11195C21.6934 8.01557 21.5372 7.97873 21.388 8.01197L8.38805 11.012C8.15926 11.0646 7.99782 11.2692 8.00002 11.504V28.504C8.00012 28.7507 8.18016 28.9605 8.42401 28.998L21.424 30.998C21.6969 31.0399 21.9522 30.8527 21.9942 30.5798C21.998 30.5547 22 30.5294 22 30.504V8.50397C22.0004 8.35148 21.9312 8.20715 21.812 8.11195Z" fill="white"/>
<path d="M31.5 29.0039H21.5C21.2239 29.0039 21 28.78 21 28.5039C21 28.2277 21.2239 28.0038 21.5 28.0038H31V11.0039H21.5C21.2239 11.0039 21 10.78 21 10.5039C21 10.2277 21.2239 10.0039 21.5 10.0039H31.5C31.7761 10.0039 32 10.2278 32 10.5039V28.5039C32 28.78 31.7762 29.0039 31.5 29.0039Z" fill="white"/>
<path d="M16.5 24.004C16.2773 24.0038 16.0815 23.8562 16.02 23.642L14.5 18.324L12.98 23.642C12.8702 23.9074 12.5661 24.0335 12.3007 23.9237C12.1731 23.871 12.0718 23.7696 12.019 23.642L10.019 16.642C9.9353 16.3789 10.0808 16.0977 10.344 16.014C10.6071 15.9303 10.8883 16.0758 10.972 16.339C10.9749 16.3482 10.9776 16.3576 10.9801 16.367L12.5 21.684L14.02 16.366C14.1298 16.1007 14.4339 15.9745 14.6993 16.0843C14.8269 16.1371 14.9283 16.2385 14.9811 16.366L16.5 21.6841L18.0201 16.3671C18.092 16.1039 18.3637 15.9489 18.6269 16.0209C18.6306 16.0219 18.6343 16.023 18.6381 16.024C18.9034 16.1001 19.0569 16.3767 18.981 16.642L16.981 23.642C16.9194 23.8565 16.7232 24.0042 16.5 24.004Z" fill="#295294"/>
<path d="M29.5 14.0039H21.5C21.2239 14.0039 21 13.7801 21 13.5039C21 13.2278 21.2239 13.0039 21.5 13.0039H29.5C29.7762 13.0039 30 13.2278 30 13.5039C30 13.7801 29.7762 14.0039 29.5 14.0039Z" fill="white"/>
<path d="M29.5 17.0039H21.5C21.2239 17.0039 21 16.7801 21 16.5039C21 16.2278 21.2239 16.0039 21.5 16.0039H29.5C29.7762 16.0039 30 16.2278 30 16.5039C30 16.7801 29.7762 17.0039 29.5 17.0039Z" fill="white"/>
<path d="M29.5 20.0039H21.5C21.2239 20.0039 21 19.7801 21 19.5039C21 19.2278 21.2239 19.0039 21.5 19.0039H29.5C29.7762 19.0039 30 19.2278 30 19.5039C30 19.7801 29.7762 20.0039 29.5 20.0039Z" fill="white"/>
<path d="M29.5 23.0039H21.5C21.2239 23.0039 21 22.7801 21 22.5039C21 22.2278 21.2239 22.0039 21.5 22.0039H29.5C29.7762 22.0039 30 22.2278 30 22.5039C30 22.7801 29.7762 23.0039 29.5 23.0039Z" fill="white"/>
<path d="M29.5 26.0039H21.5C21.2239 26.0039 21 25.7801 21 25.5039C21 25.2278 21.2239 25.0039 21.5 25.0039H29.5C29.7762 25.0039 30 25.2278 30 25.5039C30 25.7801 29.7762 26.0039 29.5 26.0039Z" fill="white"/>
</g>
<defs>
<filter id="filter0_d_181_8399" x="3" y="4" width="34" height="33.0039" filterUnits="userSpaceOnUse" color-interpolation-filters="sRGB">
<feFlood flood-opacity="0" result="BackgroundImageFix"/>
<feColorMatrix in="SourceAlpha" type="matrix" values="0 0 0 0 0 0 0 0 0 0 0 0 0 0 0 0 0 0 127 0" result="hardAlpha"/>
<feOffset dy="1"/>
<feGaussianBlur stdDeviation="2.5"/>
<feComposite in2="hardAlpha" operator="out"/>
<feColorMatrix type="matrix" values="0 0 0 0 0 0 0 0 0 0 0 0 0 0 0 0 0 0 0.15 0"/>
<feBlend mode="normal" in2="BackgroundImageFix" result="effect1_dropShadow_181_8399"/>
<feBlend mode="normal" in="SourceGraphic" in2="effect1_dropShadow_181_8399" result="shape"/>
</filter>
</defs>
</svg>
