<svg width="40" height="40" viewBox="0 0 40 40" fill="none" xmlns="http://www.w3.org/2000/svg">
<rect width="40" height="40" rx="3" fill="#217145"/>
<g filter="url(#filter0_d_182_18)">
<path d="M31.25 12.0676H21.5V9.76767C21.5 9.53921 21.401 9.32302 21.2285 9.17736C21.0575 9.0317 20.828 8.96883 20.612 9.01483L8.612 11.3147C8.2565 11.3822 8 11.698 8 12.0676V28.9335C8 29.3015 8.2565 29.6188 8.612 29.6863L20.612 31.9862C20.657 31.9954 20.7035 32 20.75 32C20.924 32 21.0935 31.9387 21.2285 31.8237C21.401 31.678 21.5 31.4603 21.5 31.2334V28.9335H31.25C31.664 28.9335 32 28.59 32 28.1668V12.8342C32 12.411 31.664 12.0676 31.25 12.0676ZM18.314 23.0626C18.587 23.38 18.5555 23.8645 18.2435 24.1436C18.101 24.2708 17.9255 24.3337 17.75 24.3337C17.5415 24.3337 17.3345 24.2447 17.186 24.0715L15.005 21.5247L13.0925 24.0393C12.944 24.2325 12.722 24.3337 12.5 24.3337C12.3395 24.3337 12.1775 24.2815 12.0395 24.1727C11.7125 23.912 11.654 23.4306 11.9075 23.0963L13.9985 20.3487L11.936 17.9384C11.663 17.621 11.6945 17.1365 12.0065 16.8575C12.317 16.5784 12.7895 16.6091 13.0655 16.9295L14.9375 19.116L17.159 16.1966C17.414 15.8639 17.885 15.8026 18.212 16.0632C18.539 16.3224 18.5975 16.8038 18.3425 17.1396L15.9425 20.292L18.314 23.0626ZM30.5 27.4002H21.5V25.8669H23.75C24.164 25.8669 24.5 25.5235 24.5 25.1003C24.5 24.6771 24.164 24.3337 23.75 24.3337H21.5V22.8004H23.75C24.164 22.8004 24.5 22.457 24.5 22.0338C24.5 21.6106 24.164 21.2671 23.75 21.2671H21.5V19.7339H23.75C24.164 19.7339 24.5 19.3904 24.5 18.9673C24.5 18.5441 24.164 18.2006 23.75 18.2006H21.5V16.6674H23.75C24.164 16.6674 24.5 16.3239 24.5 15.9007C24.5 15.4775 24.164 15.1341 23.75 15.1341H21.5V13.6008H30.5V27.4002Z" fill="#FFF7F9"/>
<path d="M28.25 15.134H26.75C26.336 15.134 26 15.4775 26 15.9007C26 16.3238 26.336 16.6673 26.75 16.6673H28.25C28.664 16.6673 29 16.3238 29 15.9007C29 15.4775 28.664 15.134 28.25 15.134Z" fill="#FFF7F9"/>
<path d="M28.25 18.2006H26.75C26.336 18.2006 26 18.544 26 18.9672C26 19.3904 26.336 19.7338 26.75 19.7338H28.25C28.664 19.7338 29 19.3904 29 18.9672C29 18.544 28.664 18.2006 28.25 18.2006Z" fill="#FFF7F9"/>
<path d="M28.25 21.2671H26.75C26.336 21.2671 26 21.6105 26 22.0337C26 22.4569 26.336 22.8004 26.75 22.8004H28.25C28.664 22.8004 29 22.4569 29 22.0337C29 21.6105 28.664 21.2671 28.25 21.2671Z" fill="#FFF7F9"/>
<path d="M28.25 24.3336H26.75C26.336 24.3336 26 24.6771 26 25.1003C26 25.5234 26.336 25.8669 26.75 25.8669H28.25C28.664 25.8669 29 25.5234 29 25.1003C29 24.6771 28.664 24.3336 28.25 24.3336Z" fill="#FFF7F9"/>
</g>
<defs>
<filter id="filter0_d_182_18" x="3" y="5" width="34" height="33" filterUnits="userSpaceOnUse" color-interpolation-filters="sRGB">
<feFlood flood-opacity="0" result="BackgroundImageFix"/>
<feColorMatrix in="SourceAlpha" type="matrix" values="0 0 0 0 0 0 0 0 0 0 0 0 0 0 0 0 0 0 127 0" result="hardAlpha"/>
<feOffset dy="1"/>
<feGaussianBlur stdDeviation="2.5"/>
<feComposite in2="hardAlpha" operator="out"/>
<feColorMatrix type="matrix" values="0 0 0 0 0 0 0 0 0 0 0 0 0 0 0 0 0 0 0.15 0"/>
<feBlend mode="normal" in2="BackgroundImageFix" result="effect1_dropShadow_182_18"/>
<feBlend mode="normal" in="SourceGraphic" in2="effect1_dropShadow_182_18" result="shape"/>
</filter>
</defs>
</svg>
