<svg width="40" height="40" viewBox="0 0 40 40" fill="none" xmlns="http://www.w3.org/2000/svg">
<rect width="40" height="40" rx="3" fill="#F20F00"/>
<g filter="url(#filter0_d_182_74)">
<path d="M15.1205 23.2162C14.8997 23.2162 14.7509 23.2378 14.6741 23.2594V24.673C14.7653 24.6946 14.8793 24.7006 15.0365 24.7006C15.6113 24.7006 15.9653 24.4102 15.9653 23.9194C15.9653 23.4802 15.6605 23.2162 15.1205 23.2162ZM19.3048 23.2306C19.0648 23.2306 18.9088 23.2522 18.8164 23.2738V26.4058C18.9088 26.4274 19.0576 26.4274 19.192 26.4274C20.1724 26.4346 20.8108 25.8946 20.8108 24.7522C20.818 23.7562 20.236 23.2306 19.3048 23.2306Z" fill="white"/>
<path d="M22 8H12.4C11.7635 8 11.153 8.25285 10.7029 8.70295C10.2529 9.15303 10 9.76348 10 10.4V29.6C10 30.2365 10.2529 30.8469 10.7029 31.297C11.153 31.7472 11.7635 32 12.4 32H26.8C27.4365 32 28.0469 31.7472 28.497 31.297C28.9472 30.8469 29.2 30.2365 29.2 29.6V15.2L22 8ZM16.5976 25.028C16.2268 25.376 15.6796 25.532 15.0424 25.532C14.9188 25.5333 14.7954 25.5261 14.6728 25.5104V27.2216H13.6V22.4984C14.0841 22.4262 14.5733 22.3933 15.0628 22.4C15.7312 22.4 16.2064 22.5272 16.5268 22.7828C16.8316 23.0252 17.038 23.4224 17.038 23.8904C17.0368 24.3608 16.8808 24.758 16.5976 25.028ZM21.166 26.654C20.662 27.0728 19.8952 27.272 18.958 27.272C18.3964 27.272 17.9992 27.236 17.7292 27.2V22.4996C18.2135 22.4289 18.7025 22.3956 19.192 22.4C20.1004 22.4 20.6908 22.5632 21.1516 22.9112C21.6496 23.2808 21.9616 23.87 21.9616 24.716C21.9616 25.6316 21.6268 26.264 21.166 26.654ZM25.6 23.324H23.7616V24.4172H25.48V25.298H23.7616V27.2228H22.6744V22.436H25.6V23.324ZM22 16.4H20.8V10.4L26.8 16.4H22Z" fill="white"/>
</g>
<defs>
<filter id="filter0_d_182_74" x="5" y="4" width="29.2" height="34" filterUnits="userSpaceOnUse" color-interpolation-filters="sRGB">
<feFlood flood-opacity="0" result="BackgroundImageFix"/>
<feColorMatrix in="SourceAlpha" type="matrix" values="0 0 0 0 0 0 0 0 0 0 0 0 0 0 0 0 0 0 127 0" result="hardAlpha"/>
<feOffset dy="1"/>
<feGaussianBlur stdDeviation="2.5"/>
<feComposite in2="hardAlpha" operator="out"/>
<feColorMatrix type="matrix" values="0 0 0 0 0 0 0 0 0 0 0 0 0 0 0 0 0 0 0.15 0"/>
<feBlend mode="normal" in2="BackgroundImageFix" result="effect1_dropShadow_182_74"/>
<feBlend mode="normal" in="SourceGraphic" in2="effect1_dropShadow_182_74" result="shape"/>
</filter>
</defs>
</svg>
