<svg width="40" height="40" viewBox="0 0 40 40" fill="none" xmlns="http://www.w3.org/2000/svg">
<rect width="40" height="40" rx="6" fill="#006DBB"/>
<g filter="url(#filter0_d_627_9749)">
<path d="M11 19.7628C11 16.7659 11 13.7696 11 10.7726C11.0006 9.1325 12.1172 8.00662 13.7558 8.00481C17.1027 8.0012 20.4496 8.00601 23.7959 8C24.1387 8 24.4135 8.11006 24.6648 8.3368C26.129 9.66056 27.595 10.9825 29.0689 12.296C29.3683 12.5631 29.5006 12.8662 29.5 13.2692C29.4928 18.4505 29.4958 23.6325 29.4946 28.8138C29.4946 30.4088 28.3659 31.5503 26.77 31.5521C22.4213 31.557 18.0726 31.557 13.7233 31.5521C12.1287 31.5503 11.0012 30.4082 11.0006 28.8126C10.9994 25.7958 11.0006 22.779 11.0006 19.7622L11 19.7628ZM27.8368 14.7144C27.6925 14.7144 27.5842 14.7144 27.4766 14.7144C26.4844 14.7144 25.4922 14.7216 24.5007 14.712C23.203 14.6994 22.1724 13.8453 21.9986 12.5661C21.9102 11.9159 21.9559 11.2471 21.9451 10.5868C21.9403 10.2897 21.9445 9.99195 21.9445 9.66236C21.7791 9.66236 21.6511 9.66236 21.523 9.66236C18.9379 9.66236 16.3523 9.66236 13.7672 9.66236C13.0132 9.66236 12.6584 10.01 12.6584 10.757C12.6584 16.7701 12.6584 22.7838 12.6584 28.797C12.6584 29.5458 13.0114 29.8964 13.763 29.8958C18.0817 29.8958 22.4003 29.8958 26.7195 29.8958C27.4892 29.8958 27.8368 29.5494 27.8368 28.7789C27.8368 24.2291 27.8368 19.6786 27.8368 15.1288V14.7144ZM27.4291 13.0316C26.1405 11.8726 24.9078 10.7648 23.6757 9.65635C23.651 9.67138 23.627 9.68642 23.6023 9.70146C23.6023 10.5092 23.5999 11.3163 23.6029 12.124C23.6053 12.7164 23.9421 13.0526 24.5356 13.055C25.3864 13.0581 26.2373 13.0563 27.0881 13.055C27.1735 13.055 27.2589 13.0436 27.4285 13.0316H27.4291Z" fill="white"/>
<path d="M20.2387 15.5637C22.0402 15.5806 23.398 16.7582 23.5808 18.542C23.6788 19.4959 23.3445 20.3373 22.6806 21.0338C22.3144 21.4181 21.935 21.7892 21.5573 22.162C21.2501 22.4652 21.0955 22.8278 21.0751 23.2597C21.0504 23.7919 20.6794 24.1335 20.1833 24.1023C19.7215 24.0728 19.3884 23.6741 19.4251 23.1592C19.4834 22.3425 19.7757 21.622 20.3565 21.0326C20.7215 20.6615 21.0937 20.297 21.4599 19.9265C21.9644 19.4159 22.0907 18.8133 21.8075 18.1613C21.5327 17.528 21.0102 17.2411 20.3217 17.2399C19.2134 17.2375 18.6728 17.7211 18.5484 18.8343C18.4943 19.3221 18.1202 19.6384 17.644 19.5999C17.1996 19.5645 16.887 19.191 16.8954 18.7068C16.9212 17.2279 18.0854 15.8837 19.5538 15.6425C19.7799 15.6052 20.0102 15.5902 20.2381 15.5643L20.2387 15.5637Z" fill="white"/>
<path d="M19.4196 25.637C19.4166 25.2196 19.8074 24.8449 20.2416 24.8479C20.6499 24.8509 21.0744 25.2563 21.0762 25.6442C21.078 26.0821 20.6865 26.5013 20.2764 26.5007C19.8074 26.5007 19.4232 26.1127 19.4196 25.6364V25.637Z" fill="white"/>
</g>
<defs>
<filter id="filter0_d_627_9749" x="6" y="4" width="28.5" height="33.5558" filterUnits="userSpaceOnUse" color-interpolation-filters="sRGB">
<feFlood flood-opacity="0" result="BackgroundImageFix"/>
<feColorMatrix in="SourceAlpha" type="matrix" values="0 0 0 0 0 0 0 0 0 0 0 0 0 0 0 0 0 0 127 0" result="hardAlpha"/>
<feOffset dy="1"/>
<feGaussianBlur stdDeviation="2.5"/>
<feComposite in2="hardAlpha" operator="out"/>
<feColorMatrix type="matrix" values="0 0 0 0 0 0 0 0 0 0 0 0 0 0 0 0 0 0 0.05 0"/>
<feBlend mode="normal" in2="BackgroundImageFix" result="effect1_dropShadow_627_9749"/>
<feBlend mode="normal" in="SourceGraphic" in2="effect1_dropShadow_627_9749" result="shape"/>
</filter>
</defs>
</svg>
