<svg width="64" height="64" viewBox="0 0 64 64" fill="none" xmlns="http://www.w3.org/2000/svg">
<path d="M48.9517 33.3602C41.744 33.3602 35.9021 39.2021 35.9021 46.4086C35.9021 53.6157 41.744 59.4588 48.9517 59.4588C56.1581 59.4588 62 53.6157 62 46.4086C62 39.2021 56.1581 33.3602 48.9517 33.3602ZM15.049 33.3609C7.8425 33.3615 2 39.2021 2 46.4092C2 53.6157 7.8425 59.4582 15.049 59.4582C22.256 59.4582 28.0986 53.6157 28.0986 46.4092C28.0986 39.2021 22.2566 33.3609 15.049 33.3609ZM45.049 17.049C45.049 24.2554 39.2071 30.0992 32.0007 30.0992C24.793 30.0992 18.9511 24.2554 18.9511 17.049C18.9511 9.8425 24.793 4 32.0006 4C39.2071 4 45.049 9.8425 45.049 17.049Z" fill="url(#paint0_radial_1991_14644)"/>
<defs>
<radialGradient id="paint0_radial_1991_14644" cx="0" cy="0" r="1" gradientUnits="userSpaceOnUse" gradientTransform="translate(32.0081 34.344) scale(39.78 36.7692)">
<stop stop-color="#FFB900"/>
<stop offset="0.6" stop-color="#F95D8F"/>
<stop offset="0.999" stop-color="#F95353"/>
</radialGradient>
</defs>
</svg>
