<svg xmlns="http://www.w3.org/2000/svg" version="1.0" width="400.000000pt" height="400.000000pt" viewBox="0 0 400.000000 400.000000" preserveAspectRatio="xMidYMid meet">

<g transform="translate(0.000000,400.000000) scale(0.100000,-0.100000)" fill="#7742b6" stroke="none">
<path d="M0 2000 l0 -2000 2000 0 2000 0 0 2000 0 2000 -2000 0 -2000 0 0 -2000z m2675 1407 c39 -9 97 -24 130 -33 68 -18 255 -94 255 -104 0 -4 -30 -12 -67 -20 -37 -7 -108 -33 -157 -58 -125 -62 -233 -170 -294 -292 -23 -47 -45 -100 -48 -118 -6 -31 -9 -33 -33 -27 -14 4 -162 10 -328 12 -285 4 -301 4 -307 -14 -3 -10 -33 -144 -66 -298 -34 -154 -92 -422 -130 -595 -37 -173 -83 -382 -101 -465 -17 -82 -35 -154 -39 -158 -4 -5 -63 31 -131 79 -68 48 -162 115 -209 148 -47 33 -136 95 -198 139 -82 57 -111 84 -108 96 5 16 121 566 212 1001 48 232 141 671 149 708 l6 23 697 -4 c605 -3 706 -6 767 -20z m606 -397 c117 -40 206 -117 259 -223 82 -168 54 -360 -72 -493 -181 -192 -462 -193 -643 -3 -266 279 -68 737 318 739 52 0 97 -7 138 -20z m324 -977 c-11 -108 -44 -271 -76 -368 -203 -636 -689 -1018 -1391 -1094 -125 -14 -1502 -15 -1493 -2 5 9 169 131 742 554 l146 107 296 0 c321 0 373 6 497 56 184 73 336 232 418 438 24 59 47 141 70 248 l6 27 56 -25 c218 -96 472 -64 674 85 30 22 57 40 59 41 2 0 0 -30 -4 -67z" fill="#7742b6"/>
</g>
</svg>