<svg width="64" height="64" viewBox="0 0 64 64" fill="none" xmlns="http://www.w3.org/2000/svg">
<g id="google_drive" filter="url(#filter0_d_485_42090)">
<path id="bg" d="M4 23.9111C4 16.9416 4 13.4568 5.35636 10.7948C6.54945 8.45321 8.45321 6.54945 10.7948 5.35636C13.4568 4 16.9416 4 23.9111 4H40.0889C47.0584 4 50.5432 4 53.2052 5.35636C55.5468 6.54945 57.4505 8.45321 58.6436 10.7948C60 13.4568 60 16.9416 60 23.9111V40.0889C60 47.0584 60 50.5432 58.6436 53.2052C57.4505 55.5468 55.5468 57.4505 53.2052 58.6436C50.5432 60 47.0584 60 40.0889 60H23.9111C16.9416 60 13.4568 60 10.7948 58.6436C8.45321 57.4505 6.54945 55.5468 5.35636 53.2052C4 50.5432 4 47.0584 4 40.0889V23.9111Z" fill="white"/>
<g id="g-drive">
<path id="Vector" d="M32.0038 24.9014L25.082 12.6859C25.3119 12.452 25.5763 12.2985 25.8407 12.1953C23.7995 12.8671 22.8629 15.1592 22.8629 15.1592L10.2179 37.4691C10.04 38.1685 9.99055 38.8001 10.0128 39.3561H23.8143L32.0038 24.9014Z" fill="#34A853"/>
<path id="Vector_2" d="M32.0039 24.9014L40.1934 39.3561H53.9949C54.0172 38.8001 53.9677 38.1685 53.7898 37.4691L41.1448 15.1592C41.1448 15.1592 40.2057 12.8671 38.167 12.1953C38.429 12.2985 38.6959 12.452 38.9257 12.6859L32.0039 24.9014Z" fill="#FBBC05"/>
<path id="Vector_3" d="M32.0038 24.9028L38.9256 12.6874C38.6958 12.4534 38.4289 12.2999 38.1669 12.1968C37.8654 12.0987 37.5417 12.0332 37.1908 12.0156H36.8251H27.1825H26.8168C26.4684 12.0307 26.1422 12.0961 25.8407 12.1968C25.5787 12.2999 25.3119 12.4534 25.082 12.6874L32.0038 24.9028Z" fill="#188038"/>
<path id="Vector_4" d="M23.8164 39.3574L16.9737 51.4345C16.9737 51.4345 16.7464 51.3238 16.4375 51.0948C17.4087 51.8421 18.3527 52.0006 18.3527 52.0006H45.2267C46.7094 52.0006 47.0183 51.4345 47.0183 51.4345C47.0233 51.432 47.0257 51.4294 47.0307 51.4269L40.1929 39.3574H23.8164Z" fill="#4285F4"/>
<path id="Vector_5" d="M23.8172 39.3574H10.0156C10.0848 40.9979 10.7965 41.9565 10.7965 41.9565L11.3155 42.8573C11.3525 42.9101 11.3748 42.9403 11.3748 42.9403L12.5041 44.9229L15.0395 49.3361C15.1137 49.5147 15.2002 49.6783 15.2916 49.8343C15.3262 49.8871 15.3583 49.945 15.3954 49.9953C15.4053 50.0104 15.4151 50.0255 15.425 50.0406C15.7389 50.4834 16.0898 50.8256 16.4407 51.0948C16.7496 51.3263 16.9769 51.4345 16.9769 51.4345L23.8172 39.3574Z" fill="#1967D2"/>
<path id="Vector_6" d="M40.1934 39.3574H53.9949C53.9257 40.9979 53.214 41.9565 53.214 41.9565L52.695 42.8573C52.658 42.9101 52.6357 42.9403 52.6357 42.9403L51.5064 44.9229L48.971 49.3361C48.8968 49.5147 48.8104 49.6783 48.7189 49.8343C48.6843 49.8871 48.6522 49.945 48.6151 49.9953C48.6052 50.0104 48.5954 50.0255 48.5855 50.0406C48.2716 50.4834 47.9207 50.8256 47.5698 51.0948C47.2609 51.3263 47.0336 51.4345 47.0336 51.4345L40.1934 39.3574Z" fill="#EA4335"/>
</g>
</g>
<defs>
<filter id="filter0_d_485_42090" x="-2" y="-1" width="68" height="68" filterUnits="userSpaceOnUse" color-interpolation-filters="sRGB">
<feFlood flood-opacity="0" result="BackgroundImageFix"/>
<feColorMatrix in="SourceAlpha" type="matrix" values="0 0 0 0 0 0 0 0 0 0 0 0 0 0 0 0 0 0 127 0" result="hardAlpha"/>
<feOffset dy="1"/>
<feGaussianBlur stdDeviation="1"/>
<feColorMatrix type="matrix" values="0 0 0 0 0.0627451 0 0 0 0 0.0941176 0 0 0 0 0.156863 0 0 0 0.05 0"/>
<feBlend mode="normal" in2="BackgroundImageFix" result="effect1_dropShadow_485_42090"/>
<feBlend mode="normal" in="SourceGraphic" in2="effect1_dropShadow_485_42090" result="shape"/>
</filter>
</defs>
</svg>
