<svg width="56" height="56" viewBox="0 0 56 56" fill="none" xmlns="http://www.w3.org/2000/svg">
<g id="jira">
<path id="vector" d="M55.3295 26.4329L30.415 2.3358L28 0L9.24537 18.1394L0.67052 26.4329C-0.223507 27.2987 -0.223507 28.7013 0.67052 29.5671L17.8049 46.1394L28 56L46.7546 37.8606L47.045 37.5797L55.3295 29.5671C56.2235 28.7013 56.2235 27.2987 55.3295 26.4329ZM28 36.2788L19.4404 28L28 19.7212L36.5596 28L28 36.2788Z" fill="#2684FF"/>
<path id="vector_2" fill-rule="evenodd" clip-rule="evenodd" d="M27.9999 19.7211C22.3957 14.3001 22.3684 5.51989 27.9387 0.0664062L9.20703 18.1762L19.4021 28.0368L27.9999 19.7211Z" fill="url(#paint0_linear_1988_14046)"/>
<path id="vector_3" fill-rule="evenodd" clip-rule="evenodd" d="M36.5825 27.9785L28 36.2795C30.7049 38.8941 32.2247 42.4413 32.2247 46.1401C32.2247 49.8389 30.7049 53.386 28 56.0007L46.7776 37.8391L36.5825 27.9785Z" fill="url(#paint1_linear_1988_14046)"/>
</g>
<defs>
<linearGradient id="paint0_linear_1988_14046" x1="26.4714" y1="11.3462" x2="12.1929" y2="17.5805" gradientUnits="userSpaceOnUse">
<stop offset="0.18" stop-color="#0052CC"/>
<stop offset="1" stop-color="#2684FF"/>
</linearGradient>
<linearGradient id="paint1_linear_1988_14046" x1="29.6355" y1="44.5582" x2="43.8883" y2="38.3683" gradientUnits="userSpaceOnUse">
<stop offset="0.18" stop-color="#0052CC"/>
<stop offset="1" stop-color="#2684FF"/>
</linearGradient>
</defs>
</svg>
