<svg width="4564" height="5344" viewBox="0 0 4564 5344" fill="none" xmlns="http://www.w3.org/2000/svg">
<path d="M1658.51 3285.5H210.481C94.2356 3285.5 0 3191.26 0 3075.02C0 3026.2 16.9722 2978.89 48.0106 2941.21L2425.47 54.562C2450.06 24.7091 2494.41 20.4458 2523.33 46.1314C3097.8 556.472 3087.04 1182.63 2994.2 1490.48C2981.71 1531.9 2960.03 1569.65 2934.41 1604.51L1722.98 3252.88C1707.9 3273.39 1683.97 3285.5 1658.51 3285.5Z" fill="#1972F5"/>
<path d="M2904.5 2059L4352.53 2059C4468.78 2059 4563.02 2153.24 4563.02 2269.48C4563.02 2318.3 4546.04 2365.61 4515 2403.29L2137.54 5289.94C2112.95 5319.79 2068.6 5324.05 2039.69 5298.37C1465.22 4788.03 1475.98 4161.87 1568.82 3854.02C1581.31 3812.6 1602.99 3774.85 1628.61 3739.99L2840.04 2091.62C2855.11 2071.11 2879.05 2059 2904.5 2059Z" fill="#1972F5"/>
</svg>
