<svg width="32" height="32" viewBox="0 0 32 32" fill="none" xmlns="http://www.w3.org/2000/svg">
<path d="M29.3327 13.3337V17.3337C29.3327 22.667 26.666 25.3337 21.3327 25.3337H20.666C20.2527 25.3337 19.8527 25.5337 19.5993 25.867L17.5993 28.5337C16.7193 29.707 15.2793 29.707 14.3993 28.5337L12.3993 25.867C12.186 25.5737 11.6927 25.3337 11.3327 25.3337H10.666C5.33268 25.3337 2.66602 24.0003 2.66602 17.3337V10.667C2.66602 5.33366 5.33268 2.66699 10.666 2.66699H18.666" stroke="#475467" stroke-width="4" stroke-miterlimit="10" stroke-linecap="round" stroke-linejoin="round"/>
<path d="M21.3293 14.6667H21.3412" stroke="#FF3465" stroke-width="4" stroke-linecap="round" stroke-linejoin="round"/>
<path d="M15.9933 14.6667H16.0053" stroke="#FF3465" stroke-width="4" stroke-linecap="round" stroke-linejoin="round"/>
<path d="M10.6593 14.6667H10.6713" stroke="#FF3465" stroke-width="4" stroke-linecap="round" stroke-linejoin="round"/>
<path fill-rule="evenodd" clip-rule="evenodd" d="M26.4675 10.6667C25.4436 10.6667 24.5281 10.4358 23.715 9.98677C22.9019 9.53137 22.2695 8.89637 21.8058 8.08819C21.348 7.28002 21.1191 6.3628 21.1191 5.33654C21.1191 5.07356 21.1312 4.82341 21.1613 4.57326C21.2577 3.75867 21.8961 3.16216 22.667 3.16216H24.757C24.757 3.16216 24.7028 3.21988 24.6727 3.25195C24.2029 3.7715 23.968 4.46422 23.968 5.34295C23.968 6.22169 24.2029 6.908 24.6727 7.42754C25.1425 7.94708 25.7388 8.20365 26.4615 8.20365C27.1843 8.20365 27.7805 7.94067 28.2443 7.42754C28.7081 6.908 28.943 6.21527 28.943 5.34295C28.943 4.47063 28.7081 3.77791 28.2443 3.25195C27.7805 2.73241 27.1903 2.46943 26.4615 2.46943H21.866C22.3177 1.71898 22.9321 1.12247 23.703 0.68631C24.5161 0.230908 25.4316 0 26.4555 0C27.4794 0 28.3949 0.230908 29.202 0.68631C30.009 1.14171 30.6414 1.77671 31.0992 2.58489C31.5569 3.39306 31.7858 4.31028 31.7858 5.33654C31.7858 6.3628 31.5569 7.28002 31.0992 8.08819C30.6414 8.89637 30.009 9.53137 29.202 9.98677C28.3949 10.4422 27.4794 10.6667 26.4555 10.6667H26.4675Z" fill="#FF3465"/>
</svg>
