<svg width="64" height="64" viewBox="0 0 64 64" fill="none" xmlns="http://www.w3.org/2000/svg">
<g clip-path="url(#clip0_1991_14667)">
<path d="M9.46387 49.6927C6.76354 49.6985 4.26892 48.2509 2.93416 45.9035C1.61864 43.5706 1.69753 40.7022 3.13928 38.4451L16.5862 17.3289C17.9873 15.0184 20.5232 13.6406 23.2241 13.7222C25.9231 13.7869 28.378 15.3001 29.6484 17.6822C30.902 20.0525 30.7453 22.9042 29.2439 25.1292L15.8056 46.2454C14.4205 48.4036 12.0283 49.704 9.46387 49.6927Z" fill="#F62B54"/>
<path d="M32.5284 49.6917C29.8163 49.6917 27.3206 48.2416 26.0101 45.9111C24.6975 43.5845 24.7764 40.7234 26.2152 38.4726L39.6365 17.4049C41.0174 15.0613 43.5608 13.6511 46.2801 13.7213C49.0151 13.7811 51.4936 15.3109 52.7472 17.704C53.9921 20.0971 53.8098 22.966 52.2629 25.1853L38.8445 46.253C37.4638 48.4019 35.0826 49.6983 32.5284 49.6917Z" fill="#FFCC00"/>
<path d="M55.0772 49.8696C58.9006 49.8696 62 46.8352 62 43.092C62 39.3489 58.9006 36.3145 55.0772 36.3145C51.2538 36.3145 48.1543 39.3489 48.1543 43.092C48.1543 46.8352 51.2538 49.8696 55.0772 49.8696Z" fill="#00CA72"/>
</g>
<defs>
<clipPath id="clip0_1991_14667">
<rect width="60" height="60" fill="white" transform="translate(2 2)"/>
</clipPath>
</defs>
</svg>
