<svg width="64" height="64" viewBox="0 0 64 64" fill="none" xmlns="http://www.w3.org/2000/svg">
<path d="M53.0004 29.9991C55.7616 29.9991 58 27.7608 58 24.9996C58 22.2384 55.7614 20 53.0002 20C50.2388 20 48 22.2386 48 25V29.9991H53.0004ZM39 29.9991C41.7614 29.9991 44 27.7606 44 24.9991V11C44 8.23858 41.7614 6 39 6C36.2386 6 34 8.23858 34 11V24.9991C34 27.7606 36.2386 29.9991 39 29.9991Z" fill="#2EB67D"/>
<path d="M10.9996 34.0009C8.23839 34.0009 6 36.2392 6 39.0004C6 41.7616 8.2386 44 10.9998 44C13.7612 44 16 41.7614 16 39V34.0009H10.9996ZM25 34.0009C22.2386 34.0009 20 36.2394 20 39.0009V53C20 55.7614 22.2386 58 25 58C27.7614 58 30 55.7614 30 53V39.0009C30 36.2394 27.7614 34.0009 25 34.0009Z" fill="#E01E5A"/>
<path d="M34.0009 53.0004C34.0009 55.7616 36.2392 58 39.0004 58C41.7616 58 44 55.7614 44 53.0002C44 50.2388 41.7614 48 39 48L34.0009 48L34.0009 53.0004ZM34.0009 39C34.0009 41.7614 36.2394 44 39.0009 44L53 44C55.7614 44 58 41.7614 58 39C58 36.2386 55.7614 34 53 34L39.0009 34C36.2394 34 34.0009 36.2386 34.0009 39Z" fill="#ECB22E"/>
<path d="M29.9991 10.9996C29.9991 8.23839 27.7608 6 24.9996 6C22.2384 6 20 8.2386 20 10.9998C20 13.7612 22.2386 16 25 16L29.9991 16L29.9991 10.9996ZM29.9991 25C29.9991 22.2386 27.7606 20 24.9991 20L11 20C8.23858 20 6 22.2386 6 25C6 27.7614 8.23858 30 11 30L24.9991 30C27.7606 30 29.9991 27.7614 29.9991 25Z" fill="#36C5F0"/>
</svg>
