<svg width="64" height="64" viewBox="0 0 64 64" fill="none" xmlns="http://www.w3.org/2000/svg">
<g clip-path="url(#clip0_1991_14648)">
<path d="M54.5005 2H9.49953C5.36514 2.00926 2.01441 5.3602 2 9.5V54.5C2 58.625 5.37432 62 9.49953 62H54.5005C58.6257 62 62 58.625 62 54.5V9.5C62 5.375 58.6257 2 54.5005 2Z" fill="#E44332"/>
<path d="M14.6874 30.3126C15.7334 29.7018 38.2053 16.6427 38.719 16.3401C39.2327 16.0412 39.2607 15.1221 38.6817 14.7896C38.1063 14.459 37.0136 13.8313 36.6082 13.5904C36.0294 13.272 35.3261 13.2805 34.7552 13.6128C34.4675 13.7809 15.2664 24.9328 14.6257 25.2989C13.8542 25.7398 12.9072 25.7472 12.1413 25.2989L2 19.3475V24.406C4.46574 25.8593 10.6058 29.4683 12.0927 30.3182C12.98 30.8226 13.83 30.8114 14.6892 30.3126" fill="white"/>
<path d="M14.6874 39.8771C15.7334 39.2662 38.2053 26.2071 38.719 25.9045C39.2327 25.6056 39.2607 24.6866 38.6817 24.3541C38.1063 24.0234 37.0136 23.3958 36.6082 23.1548C36.0294 22.8364 35.3261 22.8449 34.7552 23.1772C34.4675 23.3454 15.2664 34.4973 14.6257 34.8634C13.8542 35.3042 12.9072 35.3117 12.1413 34.8634L2 28.912V33.9705C4.46574 35.4238 10.6058 39.0327 12.0927 39.8827C12.98 40.387 13.83 40.3758 14.6892 39.8771" fill="white"/>
<path d="M14.6874 50.0392C15.7334 49.4283 38.2053 36.3692 38.719 36.0666C39.2327 35.7677 39.2607 34.8487 38.6817 34.5162C38.1063 34.1856 37.0136 33.5579 36.6082 33.3169C36.0294 32.9985 35.3261 33.007 34.7552 33.3394C34.4675 33.5075 15.2664 44.6594 14.6257 45.0255C13.8542 45.4663 12.9072 45.4738 12.1413 45.0255L2 39.0741V44.1326C4.46574 45.5859 10.6058 49.1948 12.0927 50.0448C12.98 50.5491 13.83 50.5379 14.6892 50.0392" fill="white"/>
</g>
<defs>
<clipPath id="clip0_1991_14648">
<rect width="60" height="60" fill="white" transform="translate(2 2)"/>
</clipPath>
</defs>
</svg>
