<?xml version="1.0" encoding="UTF-8" ?>
<!DOCTYPE svg PUBLIC "-//W3C//DTD SVG 1.1//EN" "http://www.w3.org/Graphics/SVG/1.1/DTD/svg11.dtd">
<svg width="1000pt" height="1000pt" viewBox="0 0 1000 1000" version="1.1" xmlns="http://www.w3.org/2000/svg">
<g id="#ff5102ff">
<path fill="#ff5102" opacity="1.00" d=" M 0.00 0.00 L 1000.00 0.00 L 1000.00 1000.00 L 0.00 1000.00 L 0.00 0.00 M 609.10 360.90 C 605.60 362.80 602.12 364.76 598.95 367.20 C 596.11 370.66 593.38 374.46 592.33 378.88 C 591.17 385.52 591.14 392.64 594.07 398.84 C 597.45 404.66 602.57 409.66 609.01 411.89 C 615.98 413.97 623.87 413.99 630.41 410.51 C 634.77 408.40 638.94 405.24 640.83 400.64 C 641.16 400.37 641.83 399.84 642.17 399.57 C 644.54 392.99 645.62 385.81 643.92 378.93 C 643.08 375.26 640.81 372.18 639.14 368.87 C 636.06 366.26 632.96 363.55 629.17 362.02 C 622.89 359.12 615.72 359.95 609.10 360.90 M 494.34 427.23 C 489.22 429.95 484.95 433.90 480.88 437.96 C 478.70 440.85 476.65 443.83 474.89 446.99 C 470.73 454.48 468.53 462.80 466.02 470.93 C 464.25 466.24 464.23 461.20 463.59 456.30 C 461.86 446.12 460.60 435.86 459.32 425.61 C 446.08 425.63 432.83 425.51 419.59 425.67 C 419.44 425.97 419.13 426.56 418.98 426.86 C 418.65 475.56 418.92 524.28 418.83 572.98 C 418.94 593.54 418.54 614.10 419.21 634.65 C 434.73 634.68 450.25 634.69 465.78 634.68 C 466.18 630.48 466.07 626.26 465.89 622.05 C 465.86 602.37 465.87 582.69 465.91 563.01 C 465.97 557.81 465.39 552.49 466.89 547.43 C 469.06 552.28 470.15 557.54 472.45 562.34 C 475.30 569.59 479.80 576.22 485.78 581.24 C 491.28 586.53 498.56 589.34 505.76 591.45 C 512.67 592.89 519.79 592.85 526.81 592.44 C 541.68 591.70 555.91 583.52 564.23 571.19 C 575.12 555.72 579.01 536.56 580.21 518.00 C 581.35 494.20 579.95 469.13 568.31 447.78 C 561.36 435.32 549.46 425.09 535.17 422.51 C 521.55 419.91 506.79 420.71 494.34 427.23 M 702.96 427.00 C 701.99 427.37 701.04 427.75 700.09 428.13 C 680.71 436.17 665.52 453.24 659.47 473.30 C 655.94 483.49 655.37 494.30 654.95 504.97 C 654.57 525.83 660.14 547.38 673.22 563.95 C 683.03 576.09 696.70 585.21 711.85 589.14 C 726.50 593.45 742.11 592.89 757.14 591.23 C 766.21 589.62 775.00 586.62 782.95 581.91 C 797.69 572.71 807.41 557.08 811.93 540.56 C 804.67 538.12 797.21 536.33 789.85 534.22 C 783.79 532.59 777.80 530.72 771.73 529.17 C 770.04 533.84 767.91 538.39 764.88 542.34 C 760.85 548.09 753.92 551.28 747.06 551.95 C 736.49 553.16 725.15 552.23 715.95 546.44 C 707.04 540.23 702.59 529.28 702.23 518.68 C 739.02 518.83 775.81 518.81 812.60 518.69 C 814.24 499.76 814.34 480.01 807.00 462.15 C 801.00 446.49 788.49 433.43 772.99 427.00 C 761.58 422.47 749.19 420.75 736.95 421.22 C 725.40 421.20 713.77 422.85 702.96 427.00 M 287.00 430.99 C 277.26 436.02 268.93 444.06 264.40 454.13 C 260.04 462.15 257.72 471.06 256.38 480.04 C 262.80 480.72 269.14 482.05 275.59 482.63 C 283.87 483.80 292.10 485.41 300.47 485.83 C 301.84 476.38 306.56 466.53 315.86 462.69 C 319.12 461.65 322.42 460.51 325.88 460.52 C 332.87 460.24 340.51 460.95 346.14 465.49 C 353.37 472.11 354.59 482.52 354.32 491.78 C 343.23 492.49 332.10 491.91 321.00 492.10 C 306.08 491.89 290.39 491.99 276.66 498.60 C 263.80 504.47 255.63 517.57 252.74 531.05 C 251.08 541.83 251.04 553.18 254.70 563.58 C 258.46 575.24 268.65 584.06 280.04 587.96 C 292.80 592.50 306.92 592.51 319.87 588.72 C 331.11 584.90 340.71 576.66 346.32 566.20 C 349.26 560.66 352.23 554.95 352.94 548.63 C 353.68 548.56 354.42 548.50 355.17 548.45 C 356.92 561.44 359.07 574.38 360.92 587.35 C 361.14 587.52 361.59 587.84 361.82 588.01 C 374.74 588.12 387.70 588.27 400.63 587.86 C 400.77 553.23 400.79 518.59 400.62 483.97 C 400.65 467.83 395.86 451.20 384.77 439.14 C 372.59 426.91 354.78 422.50 338.00 422.00 C 320.70 421.19 302.48 422.49 287.00 430.99 M 96.11 425.50 C 96.05 438.79 96.11 452.07 96.09 465.36 C 119.75 465.34 143.40 465.36 167.06 465.35 C 172.52 465.40 178.00 465.09 183.44 465.71 C 182.85 465.98 181.65 466.52 181.06 466.78 C 174.63 473.49 167.57 479.59 160.70 485.83 C 160.36 486.17 159.69 486.85 159.36 487.19 C 154.05 492.20 148.54 497.01 143.36 502.17 C 130.60 513.80 117.89 525.49 105.23 537.25 C 102.46 539.82 99.68 542.39 96.84 544.90 C 95.75 545.95 94.67 547.02 93.58 548.10 C 93.26 561.31 93.46 574.55 93.46 587.77 C 111.62 588.46 129.81 587.91 147.98 588.09 C 179.22 588.13 210.47 587.99 241.72 588.16 C 242.62 581.80 242.05 575.38 242.11 568.99 C 242.00 562.10 242.49 555.19 241.71 548.32 C 211.83 548.23 181.96 548.34 152.08 548.27 C 152.27 547.18 152.48 546.11 152.68 545.04 C 156.59 542.98 159.34 539.44 162.69 536.67 C 172.34 528.34 181.30 519.22 191.08 511.04 C 194.67 506.97 198.91 503.58 202.93 499.96 C 215.20 488.31 228.14 477.31 240.25 465.52 C 240.96 452.23 240.45 438.84 240.47 425.51 C 192.35 425.53 144.23 425.54 96.11 425.50 M 594.35 425.50 C 594.20 479.74 594.27 533.98 594.31 588.22 C 610.00 587.73 625.74 588.80 641.39 587.68 C 641.33 535.77 641.34 483.87 641.38 431.96 C 641.37 429.78 641.03 427.61 640.69 425.47 C 625.24 425.59 609.80 425.50 594.35 425.50 M 827.40 425.49 C 827.18 479.58 827.48 533.67 827.25 587.76 C 834.49 588.44 841.77 587.93 849.02 588.09 C 857.46 587.93 865.92 588.43 874.35 587.82 C 874.19 559.20 874.30 530.59 874.28 501.97 C 874.22 494.39 876.94 487.16 880.86 480.78 C 885.29 476.64 890.88 474.27 896.70 472.82 C 906.69 471.57 916.78 472.68 926.79 471.81 C 926.43 456.40 926.71 440.97 926.65 425.55 C 915.82 424.98 904.30 425.94 895.10 432.23 C 889.47 436.59 885.01 442.33 881.72 448.62 C 878.22 455.67 876.74 463.46 873.98 470.80 C 871.24 455.79 869.73 440.60 867.33 425.54 C 854.02 425.49 840.71 425.56 827.40 425.49 Z" />
<path fill="#ff5102" opacity="1.00" d=" M 712.48 468.40 C 719.65 461.32 730.31 459.54 740.01 459.79 C 748.27 460.29 757.16 462.84 762.57 469.51 C 767.04 474.55 769.01 481.18 769.90 487.73 C 747.65 487.96 725.39 487.80 703.13 487.82 C 703.46 480.41 707.29 473.54 712.48 468.40 Z" />
<path fill="#ff5102" opacity="1.00" d=" M 481.67 468.01 C 490.96 462.04 502.72 462.86 513.11 464.72 C 516.52 466.66 520.33 468.08 523.06 471.01 C 526.06 473.77 527.95 477.42 529.94 480.93 C 534.40 492.40 535.07 504.98 533.64 517.11 C 532.75 524.54 530.58 531.91 526.47 538.22 C 524.57 540.75 522.79 543.57 519.83 544.98 C 519.69 545.23 519.42 545.74 519.28 546.00 C 516.34 547.22 513.52 548.72 510.53 549.81 C 506.41 550.76 502.13 550.61 497.93 550.68 C 491.38 550.78 485.14 547.98 479.86 544.30 C 474.69 539.91 471.30 533.83 468.66 527.67 C 465.48 516.58 465.28 504.85 466.76 493.46 C 468.29 483.54 472.97 473.54 481.67 468.01 Z" />
<path fill="#ff5102" opacity="1.00" d=" M 309.22 523.17 C 324.15 522.40 339.17 522.85 354.12 522.88 C 355.18 530.10 352.61 537.58 347.93 543.09 C 341.57 549.95 332.25 553.53 322.98 553.69 C 316.47 553.75 309.39 553.94 303.63 550.44 C 295.31 544.91 295.14 530.86 303.52 525.36 C 305.14 524.04 307.22 523.56 309.22 523.17 Z" />
</g>
<g id="#fefdf9ff">
<path fill="#fefdf9" opacity="1.00" d=" M 609.10 360.90 C 615.72 359.95 622.89 359.12 629.17 362.02 C 632.96 363.55 636.06 366.26 639.14 368.87 C 640.81 372.18 643.08 375.26 643.92 378.93 C 645.62 385.81 644.54 392.99 642.17 399.57 C 641.83 399.84 641.16 400.37 640.83 400.64 C 638.94 405.24 634.77 408.40 630.41 410.51 C 623.87 413.99 615.98 413.97 609.01 411.89 C 602.57 409.66 597.45 404.66 594.07 398.84 C 591.14 392.64 591.17 385.52 592.33 378.88 C 593.38 374.46 596.11 370.66 598.95 367.20 C 602.12 364.76 605.60 362.80 609.10 360.90 Z" />
<path fill="#fefdf9" opacity="1.00" d=" M 494.34 427.23 C 506.79 420.71 521.55 419.91 535.17 422.51 C 549.46 425.09 561.36 435.32 568.31 447.78 C 579.95 469.13 581.35 494.20 580.21 518.00 C 579.01 536.56 575.12 555.72 564.23 571.19 C 555.91 583.52 541.68 591.70 526.81 592.44 C 519.79 592.85 512.67 592.89 505.76 591.45 C 498.56 589.34 491.28 586.53 485.78 581.24 C 479.80 576.22 475.30 569.59 472.45 562.34 C 470.15 557.54 469.06 552.28 466.89 547.43 C 465.39 552.49 465.97 557.81 465.91 563.01 C 465.87 582.69 465.86 602.37 465.89 622.05 C 466.07 626.26 466.18 630.48 465.78 634.68 C 450.25 634.69 434.73 634.68 419.21 634.65 C 418.54 614.10 418.94 593.54 418.83 572.98 C 418.92 524.28 418.65 475.56 418.98 426.86 C 419.13 426.56 419.44 425.97 419.59 425.67 C 432.83 425.51 446.08 425.63 459.32 425.61 C 460.60 435.86 461.86 446.12 463.59 456.30 C 464.23 461.20 464.25 466.24 466.02 470.93 C 468.53 462.80 470.73 454.48 474.89 446.99 C 476.65 443.83 478.70 440.85 480.88 437.96 C 484.95 433.90 489.22 429.95 494.34 427.23 M 481.67 468.01 C 472.97 473.54 468.29 483.54 466.76 493.46 C 465.28 504.85 465.48 516.58 468.66 527.67 C 471.30 533.83 474.69 539.91 479.86 544.30 C 485.14 547.98 491.38 550.78 497.93 550.68 C 502.13 550.61 506.41 550.76 510.53 549.81 C 513.52 548.72 516.34 547.22 519.28 546.00 C 519.42 545.74 519.69 545.23 519.83 544.98 C 522.79 543.57 524.57 540.75 526.47 538.22 C 530.58 531.91 532.75 524.54 533.64 517.11 C 535.07 504.98 534.40 492.40 529.94 480.93 C 527.95 477.42 526.06 473.77 523.06 471.01 C 520.33 468.08 516.52 466.66 513.11 464.72 C 502.72 462.86 490.96 462.04 481.67 468.01 Z" />
<path fill="#fefdf9" opacity="1.00" d=" M 702.96 427.00 C 713.77 422.85 725.40 421.20 736.95 421.22 C 749.19 420.75 761.58 422.47 772.99 427.00 C 788.49 433.43 801.00 446.49 807.00 462.15 C 814.34 480.01 814.24 499.76 812.60 518.69 C 775.81 518.81 739.02 518.83 702.23 518.68 C 702.59 529.28 707.04 540.23 715.95 546.44 C 725.15 552.23 736.49 553.16 747.06 551.95 C 753.92 551.28 760.85 548.09 764.88 542.34 C 767.91 538.39 770.04 533.84 771.73 529.17 C 777.80 530.72 783.79 532.59 789.85 534.22 C 797.21 536.33 804.67 538.12 811.93 540.56 C 807.41 557.08 797.69 572.71 782.95 581.91 C 775.00 586.62 766.21 589.62 757.14 591.23 C 742.11 592.89 726.50 593.45 711.85 589.14 C 696.70 585.21 683.03 576.09 673.22 563.95 C 660.14 547.38 654.57 525.83 654.95 504.97 C 655.37 494.30 655.94 483.49 659.47 473.30 C 665.52 453.24 680.71 436.17 700.09 428.13 C 701.04 427.75 701.99 427.37 702.96 427.00 M 712.48 468.40 C 707.29 473.54 703.46 480.41 703.13 487.82 C 725.39 487.80 747.65 487.96 769.90 487.73 C 769.01 481.18 767.04 474.55 762.57 469.51 C 757.16 462.84 748.27 460.29 740.01 459.79 C 730.31 459.54 719.65 461.32 712.48 468.40 Z" />
<path fill="#fefdf9" opacity="1.00" d=" M 287.00 430.99 C 302.48 422.49 320.70 421.19 338.00 422.00 C 354.78 422.50 372.59 426.91 384.77 439.14 C 395.86 451.20 400.65 467.83 400.62 483.97 C 400.79 518.59 400.77 553.23 400.63 587.86 C 387.70 588.27 374.74 588.12 361.82 588.01 C 361.59 587.84 361.14 587.52 360.92 587.35 C 359.07 574.38 356.92 561.44 355.17 548.45 C 354.42 548.50 353.68 548.56 352.94 548.63 C 352.23 554.95 349.26 560.66 346.32 566.20 C 340.71 576.66 331.11 584.90 319.87 588.72 C 306.92 592.51 292.80 592.50 280.04 587.96 C 268.65 584.06 258.46 575.24 254.70 563.58 C 251.04 553.18 251.08 541.83 252.74 531.05 C 255.63 517.57 263.80 504.47 276.66 498.60 C 290.39 491.99 306.08 491.89 321.00 492.10 C 332.10 491.91 343.23 492.49 354.32 491.78 C 354.59 482.52 353.37 472.11 346.14 465.49 C 340.51 460.95 332.87 460.24 325.88 460.52 C 322.42 460.51 319.12 461.65 315.86 462.69 C 306.56 466.53 301.84 476.38 300.47 485.83 C 292.10 485.41 283.87 483.80 275.59 482.63 C 269.14 482.05 262.80 480.72 256.38 480.04 C 257.72 471.06 260.04 462.15 264.40 454.13 C 268.93 444.06 277.26 436.02 287.00 430.99 M 309.22 523.17 C 307.22 523.56 305.14 524.04 303.52 525.36 C 295.14 530.86 295.31 544.91 303.63 550.44 C 309.39 553.94 316.47 553.75 322.98 553.69 C 332.25 553.53 341.57 549.95 347.93 543.09 C 352.61 537.58 355.18 530.10 354.12 522.88 C 339.17 522.85 324.15 522.40 309.22 523.17 Z" />
<path fill="#fefdf9" opacity="1.00" d=" M 96.11 425.50 C 144.23 425.54 192.35 425.53 240.47 425.51 C 240.45 438.84 240.96 452.23 240.25 465.52 C 228.14 477.31 215.20 488.31 202.93 499.96 C 198.91 503.58 194.67 506.97 191.08 511.04 C 181.30 519.22 172.34 528.34 162.69 536.67 C 159.34 539.44 156.59 542.98 152.68 545.04 C 152.48 546.11 152.27 547.18 152.08 548.27 C 181.96 548.34 211.83 548.23 241.71 548.32 C 242.49 555.19 242.00 562.10 242.11 568.99 C 242.05 575.38 242.62 581.80 241.72 588.16 C 210.47 587.99 179.22 588.13 147.98 588.09 C 129.81 587.91 111.62 588.46 93.46 587.77 C 93.46 574.55 93.26 561.31 93.58 548.10 C 94.67 547.02 95.75 545.95 96.84 544.90 C 99.68 542.39 102.46 539.82 105.23 537.25 C 117.89 525.49 130.60 513.80 143.36 502.17 C 148.54 497.01 154.05 492.20 159.36 487.19 C 159.69 486.85 160.36 486.17 160.70 485.83 C 167.57 479.59 174.63 473.49 181.06 466.78 C 181.65 466.52 182.85 465.98 183.44 465.71 C 178.00 465.09 172.52 465.40 167.06 465.35 C 143.40 465.36 119.75 465.34 96.09 465.36 C 96.11 452.07 96.05 438.79 96.11 425.50 Z" />
<path fill="#fefdf9" opacity="1.00" d=" M 594.35 425.50 C 609.80 425.50 625.24 425.59 640.69 425.47 C 641.03 427.61 641.37 429.78 641.38 431.96 C 641.34 483.87 641.33 535.77 641.39 587.68 C 625.74 588.80 610.00 587.73 594.31 588.22 C 594.27 533.98 594.20 479.74 594.35 425.50 Z" />
<path fill="#fefdf9" opacity="1.00" d=" M 827.40 425.49 C 840.71 425.56 854.02 425.49 867.33 425.54 C 869.73 440.60 871.24 455.79 873.98 470.80 C 876.74 463.46 878.22 455.67 881.72 448.62 C 885.01 442.33 889.47 436.59 895.10 432.23 C 904.30 425.94 915.82 424.98 926.65 425.55 C 926.71 440.97 926.43 456.40 926.79 471.81 C 916.78 472.68 906.69 471.57 896.70 472.82 C 890.88 474.27 885.29 476.64 880.86 480.78 C 876.94 487.16 874.22 494.39 874.28 501.97 C 874.30 530.59 874.19 559.20 874.35 587.82 C 865.92 588.43 857.46 587.93 849.02 588.09 C 841.77 587.93 834.49 588.44 827.25 587.76 C 827.48 533.67 827.18 479.58 827.40 425.49 Z" />
</g>
</svg>
