<svg width="40" height="40" viewBox="0 0 40 40" fill="none" xmlns="http://www.w3.org/2000/svg">
<rect width="40" height="40" rx="3" fill="#BE3C1A"/>
<g filter="url(#filter0_d_182_48)">
<path d="M22.7441 30.0142C22.7772 30.0158 22.8098 30.0185 22.8433 30.0185H30.3976C31.2813 30.0185 32 29.3557 32 28.5414V12.3993C32 11.5851 31.2813 10.9223 30.3976 10.9223H22.8433C22.81 10.9223 22.7772 10.9253 22.7441 10.9267V9L8 10.8138V30.1393L22.7441 32V30.0142ZM22.8433 11.7665H30.3977C30.7764 11.7665 31.0844 12.0506 31.0844 12.3995V28.5418C31.0844 28.8907 30.7764 29.1749 30.3977 29.1749H22.8433C22.8096 29.1749 22.7768 29.1699 22.7442 29.1653V21.5306C23.1666 23.0119 24.6251 24.1059 26.3647 24.1059C28.4349 24.1059 30.1128 22.5592 30.1128 20.6512H26.3647V17.1961C24.6249 17.1961 23.1664 18.2902 22.7442 19.7717V11.7757C22.7767 11.7713 22.8094 11.7665 22.8433 11.7665ZM12.4822 20.6628C12.1343 20.9818 11.6242 21.1223 11.0351 21.118C10.905 21.117 10.7883 21.1097 10.6979 21.0964V22.6445L9.73299 22.6221V18.3947C10.0312 18.3371 10.453 18.2884 11.0541 18.2738C11.6705 18.2588 12.1146 18.3656 12.4149 18.5943C12.7048 18.8115 12.9005 19.1766 12.9005 19.6106C12.9007 20.0448 12.7519 20.4134 12.4822 20.6628ZM16.5544 20.6693C16.1758 21.0026 15.62 21.1487 14.9788 21.1443C14.8375 21.1435 14.7104 21.1359 14.6125 21.1219V22.7367L13.5627 22.7119V18.3054C13.8873 18.2449 14.3456 18.194 14.9996 18.178C15.6704 18.162 16.1541 18.2723 16.4815 18.5107C16.7966 18.7374 17.0105 19.1185 17.0105 19.5714C17.0105 20.0246 16.8477 20.4097 16.5544 20.6693ZM21.3599 18.9775L19.8991 18.9995V22.8607L18.7161 22.8329V19.017L17.3515 19.0376V18.155L21.3599 18.0591V18.9775Z" fill="white"/>
<path d="M11.1065 19.0147C10.9048 19.0181 10.7688 19.0395 10.6979 19.0601V20.3386C10.7815 20.3577 10.8851 20.3641 11.0282 20.3637C11.5579 20.3628 11.888 20.0955 11.888 19.6467C11.8881 19.2431 11.6046 19.0067 11.1065 19.0147Z" fill="white"/>
<path d="M15.0566 18.9507C14.8375 18.9541 14.6894 18.9767 14.6128 18.998V20.3313C14.7039 20.3514 14.8163 20.3577 14.9717 20.3577C15.5486 20.3568 15.9079 20.0779 15.9079 19.6092C15.9079 19.1881 15.5985 18.9418 15.0566 18.9507Z" fill="white"/>
<path d="M26.8735 20.106V20.107H30.6219C30.6219 19.1354 30.1846 18.2585 29.4838 17.6309L26.8735 20.106Z" fill="white"/>
<path d="M26.8337 19.499L29.4837 17.0561C28.7384 16.3687 27.8084 16.0337 26.8311 16.0465L26.8328 19.4982L26.8337 19.499Z" fill="white"/>
</g>
<defs>
<filter id="filter0_d_182_48" x="3" y="5" width="34" height="33" filterUnits="userSpaceOnUse" color-interpolation-filters="sRGB">
<feFlood flood-opacity="0" result="BackgroundImageFix"/>
<feColorMatrix in="SourceAlpha" type="matrix" values="0 0 0 0 0 0 0 0 0 0 0 0 0 0 0 0 0 0 127 0" result="hardAlpha"/>
<feOffset dy="1"/>
<feGaussianBlur stdDeviation="2.5"/>
<feComposite in2="hardAlpha" operator="out"/>
<feColorMatrix type="matrix" values="0 0 0 0 0 0 0 0 0 0 0 0 0 0 0 0 0 0 0.15 0"/>
<feBlend mode="normal" in2="BackgroundImageFix" result="effect1_dropShadow_182_48"/>
<feBlend mode="normal" in="SourceGraphic" in2="effect1_dropShadow_182_48" result="shape"/>
</filter>
</defs>
</svg>
