<svg width="40" height="40" viewBox="0 0 40 40" fill="none" xmlns="http://www.w3.org/2000/svg">
<rect width="40" height="40" rx="3" fill="#3F51B5"/>
<g filter="url(#filter0_d_182_127)">
<path d="M19.5 9C13.1585 9 8 14.159 8 20.5C8 26.841 13.1585 32 19.5 32C25.8415 32 31 26.841 31 20.5C31 14.159 25.8415 9 19.5 9ZM24.0717 20.9029L17.3634 25.2154C17.2848 25.2664 17.194 25.2917 17.1042 25.2917C17.0256 25.2917 16.946 25.272 16.8749 25.2332C16.7205 25.149 16.625 24.988 16.625 24.8125V16.1875C16.625 16.012 16.7205 15.851 16.8749 15.7668C17.0265 15.6835 17.2165 15.6886 17.3634 15.7846L24.0717 20.0971C24.2084 20.1851 24.2917 20.3372 24.2917 20.5C24.2917 20.6628 24.2084 20.8149 24.0717 20.9029Z" fill="white"/>
</g>
<defs>
<filter id="filter0_d_182_127" x="3" y="5" width="33" height="33" filterUnits="userSpaceOnUse" color-interpolation-filters="sRGB">
<feFlood flood-opacity="0" result="BackgroundImageFix"/>
<feColorMatrix in="SourceAlpha" type="matrix" values="0 0 0 0 0 0 0 0 0 0 0 0 0 0 0 0 0 0 127 0" result="hardAlpha"/>
<feOffset dy="1"/>
<feGaussianBlur stdDeviation="2.5"/>
<feComposite in2="hardAlpha" operator="out"/>
<feColorMatrix type="matrix" values="0 0 0 0 0 0 0 0 0 0 0 0 0 0 0 0 0 0 0.15 0"/>
<feBlend mode="normal" in2="BackgroundImageFix" result="effect1_dropShadow_182_127"/>
<feBlend mode="normal" in="SourceGraphic" in2="effect1_dropShadow_182_127" result="shape"/>
</filter>
</defs>
</svg>
