<svg width="7029" height="7301" viewBox="0 0 7029 7301" fill="none" xmlns="http://www.w3.org/2000/svg">
<g clip-path="url(#clip0_3_318)">
<path d="M2662.75 3920.13H4422.19C4133.51 4322.76 3714.93 4612.7 3243.24 4744.91C3201.07 4756.62 3158.64 4767.29 3115.69 4776.14C2974.08 4806.85 2828.82 4823.25 2681.23 4824.55H2663.01C2507.08 4824.55 2354.8 4807.64 2207.98 4775.62C2163.47 4765.99 2119.21 4755.06 2075.74 4742.57C1183.65 4487.77 517.517 3669.24 500.336 2701.58C490.184 2116.24 710.148 1564.22 1120.14 1147.02C1530.13 729.813 2077.83 500 2662.75 500C2678.89 500 2694.5 500.26 2710.64 500.521C3285.15 513.013 3822.17 750.895 4223.31 1170.18C4548.7 1510.35 4750.71 1934.84 4808.49 2389.78C4814.22 2434.54 4818.39 2479.83 4821.25 2525.38C4674.43 2493.36 4522.15 2476.45 4366.23 2476.45C4360.24 2476.45 4353.99 2476.71 4348 2476.71C4200.41 2478.01 4054.89 2494.41 3913.54 2524.86C3908.86 2480.87 3902.09 2437.67 3892.46 2395.51C3769.85 1829.69 3265.37 1404.68 2662.75 1404.42C2647.13 1404.42 2630.73 1404.94 2614.85 1405.46C1961.99 1429.66 1430.69 1960.08 1405.7 2612.83C1392.42 2958.46 1516.85 3285.87 1756.08 3534.42C1920.34 3705.16 2123.64 3823.06 2346.73 3880.57C2448.25 3906.6 2554.46 3920.13 2662.75 3920.13Z" fill="white"/>
<path d="M6528.65 4599.68C6539.06 5185.02 6319.09 5737.04 5909.1 6154.24C5499.11 6571.44 4951.42 6801 4366.5 6801C4350.36 6801 4334.74 6801 4318.6 6800.48C3744.09 6788.24 3207.07 6550.36 2805.93 6131.08C2480.54 5790.65 2278.54 5366.16 2220.75 4911.22C2215.02 4866.45 2211.12 4821.17 2207.99 4775.62C2354.81 4807.63 2507.09 4824.55 2663.02 4824.55H2681.24C2828.84 4823.25 2974.09 4806.85 3115.7 4776.14C3120.38 4820.13 3127.67 4863.33 3136.78 4905.75C3259.39 5471.57 3764.14 5896.58 4366.5 5896.58C4382.38 5896.58 4398.52 5896.32 4414.39 5895.8C5067.26 5871.59 5598.29 5341.17 5623.54 4688.43C5636.82 4342.8 5512.39 4015.39 5273.16 3766.84C5108.91 3596.1 4905.6 3477.94 4683.04 3420.68C4660.39 3414.96 4637.74 3409.75 4615.09 3405.07C4606.5 3403.51 4597.91 3401.95 4589.06 3400.38C4578.91 3398.56 4568.24 3396.74 4557.83 3395.18C4537 3392.06 4515.92 3389.45 4494.83 3387.37C4489.36 3386.59 4483.9 3386.07 4478.17 3385.81C4468.28 3384.77 4458.39 3383.99 4448.76 3383.47H4445.89C4437.56 3382.69 4429.23 3382.43 4420.64 3382.17C4413.35 3381.64 4406.06 3381.38 4398.78 3381.38C4388.1 3381.12 4377.17 3380.86 4366.5 3380.86H2607.05C2895.74 2978.23 3314.58 2688.3 3786 2556.35C3828.17 2544.37 3870.6 2533.96 3913.55 2524.85C4054.9 2494.4 4200.42 2478.01 4348.01 2476.71C4354 2476.71 4360.25 2476.45 4366.24 2476.45C4522.16 2476.45 4674.45 2493.36 4821.26 2525.37C4832.72 2527.72 4843.39 2530.32 4854.58 2532.92C4868.9 2536.31 4883.22 2539.69 4897.79 2543.33C4916.28 2548.02 4934.76 2553.22 4953.24 2558.43C5305.96 2659.15 5623.28 2847.84 5879.17 3099C6270.94 3483.67 6518.49 4014.35 6528.65 4599.68Z" fill="#D0D5DD"/>
</g>
<defs>
<clipPath id="clip0_3_318">
<rect width="6029" height="6301" fill="white" transform="translate(500 500)"/>
</clipPath>
</defs>
</svg>
